<svg
  xmlns="http://www.w3.org/2000/svg"
  width="50px"
  height="50px"
  fill="#fff"
  viewBox="0 0 512 512">
  <g>
    <path class="svg--fill-white" d="M142.394,216.601h48.7v156.684h-48.7V216.601z M166.755,138.716
    c15.567,0,28.219,12.651,28.219,28.226c0,15.588-12.651,28.24-28.219,28.24
    c-15.608,0-28.242-12.652-28.242-28.24C138.513,151.368,151.146,138.716,166.755,138.716"/>
    <path class="svg--fill-white" d="M221.638,216.601h46.707v21.408h0.65
    c6.502-12.316,22.385-25.305,46.076-25.305c49.314,0,58.416,32.454,58.416,74.639v85.941
    h-48.664v-76.199c0-18.168-0.334-41.54-25.302-41.54c-25.339,0-29.23,19.792-29.23,40.227
    v77.512h-48.653V216.601z"/>
  </g>
</svg>